<mxfile host="app.diagrams.net" modified="2023-09-18T02:00:15.539Z" agent="Mozilla/5.0 (Macintosh; Intel Mac OS X 10_15_7) AppleWebKit/537.36 (KHTML, like Gecko) Chrome/116.0.0.0 Safari/537.36" etag="_bV0BH09P5m6bhMm-rUT" version="21.7.2" type="github">
  <diagram name="페이지-1" id="AQSB7U79OfFXJ6z3K60o">
    <mxGraphModel dx="2514" dy="2062" grid="1" gridSize="10" guides="1" tooltips="1" connect="1" arrows="1" fold="1" page="1" pageScale="1" pageWidth="827" pageHeight="1169" math="0" shadow="0">
      <root>
        <mxCell id="0" />
        <mxCell id="1" parent="0" />
        <mxCell id="jNxTYTGKxMf_xdA4_NXx-20" value="" style="rounded=1;whiteSpace=wrap;html=1;strokeColor=default;fontFamily=Helvetica;fontSize=12;fontColor=default;fillColor=default;arcSize=6;movable=1;resizable=1;rotatable=1;deletable=1;editable=1;locked=0;connectable=1;" vertex="1" parent="1">
          <mxGeometry x="107.5" y="303" width="215" height="160" as="geometry" />
        </mxCell>
        <mxCell id="jNxTYTGKxMf_xdA4_NXx-21" value="" style="rounded=1;whiteSpace=wrap;html=1;strokeColor=default;fontFamily=Helvetica;fontSize=12;fontColor=default;fillColor=default;arcSize=10;movable=1;resizable=1;rotatable=1;deletable=1;editable=1;locked=0;connectable=1;" vertex="1" parent="1">
          <mxGeometry x="115" y="316" width="200" height="110" as="geometry" />
        </mxCell>
        <mxCell id="jNxTYTGKxMf_xdA4_NXx-3" value="" style="rounded=1;whiteSpace=wrap;html=1;perimeterSpacing=0;gradientColor=default;fillColor=none;arcSize=5;" vertex="1" parent="1">
          <mxGeometry x="2580" y="170" width="940" height="450" as="geometry" />
        </mxCell>
        <mxCell id="jNxTYTGKxMf_xdA4_NXx-1" value="" style="image;aspect=fixed;html=1;points=[];align=center;fontSize=12;image=img/lib/azure2/compute/Azure_Spring_Cloud.svg;movable=1;resizable=1;rotatable=1;deletable=1;editable=1;locked=0;connectable=1;" vertex="1" parent="1">
          <mxGeometry x="130" y="331" width="80" height="80" as="geometry" />
        </mxCell>
        <mxCell id="jNxTYTGKxMf_xdA4_NXx-8" value="" style="rounded=1;whiteSpace=wrap;html=1;" vertex="1" parent="1">
          <mxGeometry x="90" y="110" width="1220" height="100" as="geometry" />
        </mxCell>
        <mxCell id="jNxTYTGKxMf_xdA4_NXx-10" value="" style="rounded=1;whiteSpace=wrap;html=1;arcSize=5;" vertex="1" parent="1">
          <mxGeometry x="-317" y="-18" width="370" height="570" as="geometry" />
        </mxCell>
        <mxCell id="jNxTYTGKxMf_xdA4_NXx-11" value="API Gateway Layer" style="text;strokeColor=none;fillColor=none;html=1;fontSize=24;fontStyle=1;verticalAlign=middle;align=center;" vertex="1" parent="1">
          <mxGeometry x="105" y="110" width="220" height="40" as="geometry" />
        </mxCell>
        <mxCell id="jNxTYTGKxMf_xdA4_NXx-12" value="Application Layer" style="text;strokeColor=none;fillColor=none;html=1;fontSize=24;fontStyle=1;verticalAlign=middle;align=center;" vertex="1" parent="1">
          <mxGeometry x="120" y="246" width="180" height="40" as="geometry" />
        </mxCell>
        <mxCell id="jNxTYTGKxMf_xdA4_NXx-14" value="Dev Tools" style="text;strokeColor=none;fillColor=none;html=1;fontSize=24;fontStyle=1;verticalAlign=middle;align=center;" vertex="1" parent="1">
          <mxGeometry x="-225" y="-20" width="180" height="40" as="geometry" />
        </mxCell>
        <mxCell id="jNxTYTGKxMf_xdA4_NXx-22" value="" style="outlineConnect=0;dashed=0;verticalLabelPosition=bottom;verticalAlign=top;align=center;html=1;shape=mxgraph.aws3.postgre_sql_instance;fillColor=#2E73B8;gradientColor=none;rounded=0;strokeColor=default;fontFamily=Helvetica;fontSize=12;fontColor=default;movable=1;resizable=1;rotatable=1;deletable=1;editable=1;locked=0;connectable=1;" vertex="1" parent="1">
          <mxGeometry x="240" y="338.5" width="60" height="63" as="geometry" />
        </mxCell>
        <UserObject label="fc-auth-server" placeholders="1" name="Variable" id="jNxTYTGKxMf_xdA4_NXx-23">
          <mxCell style="text;html=1;strokeColor=none;fillColor=none;align=center;verticalAlign=middle;whiteSpace=wrap;overflow=hidden;fontSize=15;fontFamily=Helvetica;fontColor=default;fontStyle=1;movable=1;resizable=1;rotatable=1;deletable=1;editable=1;locked=0;connectable=1;" vertex="1" parent="1">
            <mxGeometry x="158" y="434" width="110" height="20" as="geometry" />
          </mxCell>
        </UserObject>
        <mxCell id="jNxTYTGKxMf_xdA4_NXx-24" value="" style="rounded=1;whiteSpace=wrap;html=1;strokeColor=default;fontFamily=Helvetica;fontSize=12;fontColor=default;fillColor=default;arcSize=6;movable=1;resizable=1;rotatable=1;deletable=1;editable=1;locked=0;connectable=1;" vertex="1" parent="1">
          <mxGeometry x="107.5" y="303" width="215" height="160" as="geometry" />
        </mxCell>
        <mxCell id="jNxTYTGKxMf_xdA4_NXx-25" value="" style="rounded=1;whiteSpace=wrap;html=1;strokeColor=default;fontFamily=Helvetica;fontSize=12;fontColor=default;fillColor=default;arcSize=10;movable=1;resizable=1;rotatable=1;deletable=1;editable=1;locked=0;connectable=1;" vertex="1" parent="1">
          <mxGeometry x="115" y="316" width="200" height="110" as="geometry" />
        </mxCell>
        <mxCell id="jNxTYTGKxMf_xdA4_NXx-26" value="" style="image;aspect=fixed;html=1;points=[];align=center;fontSize=12;image=img/lib/azure2/compute/Azure_Spring_Cloud.svg;movable=1;resizable=1;rotatable=1;deletable=1;editable=1;locked=0;connectable=1;" vertex="1" parent="1">
          <mxGeometry x="130" y="331" width="80" height="80" as="geometry" />
        </mxCell>
        <mxCell id="jNxTYTGKxMf_xdA4_NXx-27" value="" style="outlineConnect=0;dashed=0;verticalLabelPosition=bottom;verticalAlign=top;align=center;html=1;shape=mxgraph.aws3.postgre_sql_instance;fillColor=#2E73B8;gradientColor=none;rounded=0;strokeColor=default;fontFamily=Helvetica;fontSize=12;fontColor=default;movable=1;resizable=1;rotatable=1;deletable=1;editable=1;locked=0;connectable=1;" vertex="1" parent="1">
          <mxGeometry x="240" y="338.5" width="60" height="63" as="geometry" />
        </mxCell>
        <UserObject label="fc-auth-server" placeholders="1" name="Variable" id="jNxTYTGKxMf_xdA4_NXx-28">
          <mxCell style="text;html=1;strokeColor=none;fillColor=none;align=center;verticalAlign=middle;whiteSpace=wrap;overflow=hidden;fontSize=15;fontFamily=Helvetica;fontColor=default;fontStyle=1;movable=1;resizable=1;rotatable=1;deletable=1;editable=1;locked=0;connectable=1;" vertex="1" parent="1">
            <mxGeometry x="158" y="434" width="110" height="20" as="geometry" />
          </mxCell>
        </UserObject>
        <mxCell id="jNxTYTGKxMf_xdA4_NXx-29" value="" style="rounded=1;whiteSpace=wrap;html=1;strokeColor=default;fontFamily=Helvetica;fontSize=12;fontColor=default;fillColor=default;arcSize=6;movable=1;resizable=1;rotatable=1;deletable=1;editable=1;locked=0;connectable=1;" vertex="1" parent="1">
          <mxGeometry x="350" y="303" width="215" height="160" as="geometry" />
        </mxCell>
        <mxCell id="jNxTYTGKxMf_xdA4_NXx-30" value="" style="rounded=1;whiteSpace=wrap;html=1;strokeColor=default;fontFamily=Helvetica;fontSize=12;fontColor=default;fillColor=default;arcSize=10;movable=1;resizable=1;rotatable=1;deletable=1;editable=1;locked=0;connectable=1;" vertex="1" parent="1">
          <mxGeometry x="357.5" y="319" width="200" height="110" as="geometry" />
        </mxCell>
        <mxCell id="jNxTYTGKxMf_xdA4_NXx-31" value="" style="image;aspect=fixed;html=1;points=[];align=center;fontSize=12;image=img/lib/azure2/compute/Azure_Spring_Cloud.svg;movable=1;resizable=1;rotatable=1;deletable=1;editable=1;locked=0;connectable=1;" vertex="1" parent="1">
          <mxGeometry x="372.5" y="334" width="80" height="80" as="geometry" />
        </mxCell>
        <mxCell id="jNxTYTGKxMf_xdA4_NXx-32" value="" style="outlineConnect=0;dashed=0;verticalLabelPosition=bottom;verticalAlign=top;align=center;html=1;shape=mxgraph.aws3.postgre_sql_instance;fillColor=#2E73B8;gradientColor=none;rounded=0;strokeColor=default;fontFamily=Helvetica;fontSize=12;fontColor=default;movable=1;resizable=1;rotatable=1;deletable=1;editable=1;locked=0;connectable=1;" vertex="1" parent="1">
          <mxGeometry x="482.5" y="341.5" width="60" height="63" as="geometry" />
        </mxCell>
        <UserObject label="fc-hospital-service" placeholders="1" name="Variable" id="jNxTYTGKxMf_xdA4_NXx-33">
          <mxCell style="text;html=1;strokeColor=none;fillColor=none;align=center;verticalAlign=middle;whiteSpace=wrap;overflow=hidden;fontSize=15;fontFamily=Helvetica;fontColor=default;fontStyle=1;movable=1;resizable=1;rotatable=1;deletable=1;editable=1;locked=0;connectable=1;" vertex="1" parent="1">
            <mxGeometry x="383.5" y="437" width="149.5" height="20" as="geometry" />
          </mxCell>
        </UserObject>
        <mxCell id="jNxTYTGKxMf_xdA4_NXx-34" value="" style="rounded=1;whiteSpace=wrap;html=1;strokeColor=default;fontFamily=Helvetica;fontSize=12;fontColor=default;fillColor=default;arcSize=6;movable=1;resizable=1;rotatable=1;deletable=1;editable=1;locked=0;connectable=1;" vertex="1" parent="1">
          <mxGeometry x="592.25" y="303" width="215" height="160" as="geometry" />
        </mxCell>
        <mxCell id="jNxTYTGKxMf_xdA4_NXx-35" value="" style="rounded=1;whiteSpace=wrap;html=1;strokeColor=default;fontFamily=Helvetica;fontSize=12;fontColor=default;fillColor=default;arcSize=10;movable=1;resizable=1;rotatable=1;deletable=1;editable=1;locked=0;connectable=1;" vertex="1" parent="1">
          <mxGeometry x="599.75" y="316" width="200" height="110" as="geometry" />
        </mxCell>
        <mxCell id="jNxTYTGKxMf_xdA4_NXx-36" value="" style="image;aspect=fixed;html=1;points=[];align=center;fontSize=12;image=img/lib/azure2/compute/Azure_Spring_Cloud.svg;movable=1;resizable=1;rotatable=1;deletable=1;editable=1;locked=0;connectable=1;" vertex="1" parent="1">
          <mxGeometry x="614.75" y="331" width="80" height="80" as="geometry" />
        </mxCell>
        <mxCell id="jNxTYTGKxMf_xdA4_NXx-37" value="" style="outlineConnect=0;dashed=0;verticalLabelPosition=bottom;verticalAlign=top;align=center;html=1;shape=mxgraph.aws3.postgre_sql_instance;fillColor=#2E73B8;gradientColor=none;rounded=0;strokeColor=default;fontFamily=Helvetica;fontSize=12;fontColor=default;movable=1;resizable=1;rotatable=1;deletable=1;editable=1;locked=0;connectable=1;" vertex="1" parent="1">
          <mxGeometry x="724.75" y="338.5" width="60" height="63" as="geometry" />
        </mxCell>
        <mxCell id="jNxTYTGKxMf_xdA4_NXx-44" value="" style="rounded=1;whiteSpace=wrap;html=1;strokeColor=default;fontFamily=Helvetica;fontSize=12;fontColor=default;fillColor=default;arcSize=6;movable=1;resizable=1;rotatable=1;deletable=1;editable=1;locked=0;connectable=1;" vertex="1" parent="1">
          <mxGeometry x="1067" y="302" width="215" height="160" as="geometry" />
        </mxCell>
        <mxCell id="jNxTYTGKxMf_xdA4_NXx-45" value="" style="rounded=1;whiteSpace=wrap;html=1;strokeColor=default;fontFamily=Helvetica;fontSize=12;fontColor=default;fillColor=default;arcSize=10;movable=1;resizable=1;rotatable=1;deletable=1;editable=1;locked=0;connectable=1;" vertex="1" parent="1">
          <mxGeometry x="1074.5" y="315" width="200" height="110" as="geometry" />
        </mxCell>
        <mxCell id="jNxTYTGKxMf_xdA4_NXx-46" value="" style="image;aspect=fixed;html=1;points=[];align=center;fontSize=12;image=img/lib/azure2/compute/Azure_Spring_Cloud.svg;movable=1;resizable=1;rotatable=1;deletable=1;editable=1;locked=0;connectable=1;" vertex="1" parent="1">
          <mxGeometry x="1089.5" y="330" width="80" height="80" as="geometry" />
        </mxCell>
        <mxCell id="jNxTYTGKxMf_xdA4_NXx-47" value="" style="outlineConnect=0;dashed=0;verticalLabelPosition=bottom;verticalAlign=top;align=center;html=1;shape=mxgraph.aws3.postgre_sql_instance;fillColor=#2E73B8;gradientColor=none;rounded=0;strokeColor=default;fontFamily=Helvetica;fontSize=12;fontColor=default;movable=1;resizable=1;rotatable=1;deletable=1;editable=1;locked=0;connectable=1;" vertex="1" parent="1">
          <mxGeometry x="1199.5" y="337.5" width="60" height="63" as="geometry" />
        </mxCell>
        <mxCell id="jNxTYTGKxMf_xdA4_NXx-49" value="" style="rounded=1;whiteSpace=wrap;html=1;strokeColor=default;fontFamily=Helvetica;fontSize=12;fontColor=default;fillColor=default;arcSize=6;movable=1;resizable=1;rotatable=1;deletable=1;editable=1;locked=0;connectable=1;" vertex="1" parent="1">
          <mxGeometry x="827" y="303" width="215" height="160" as="geometry" />
        </mxCell>
        <mxCell id="jNxTYTGKxMf_xdA4_NXx-50" value="" style="rounded=1;whiteSpace=wrap;html=1;strokeColor=default;fontFamily=Helvetica;fontSize=12;fontColor=default;fillColor=default;arcSize=10;movable=1;resizable=1;rotatable=1;deletable=1;editable=1;locked=0;connectable=1;" vertex="1" parent="1">
          <mxGeometry x="834.5" y="316" width="200" height="110" as="geometry" />
        </mxCell>
        <mxCell id="jNxTYTGKxMf_xdA4_NXx-51" value="" style="image;aspect=fixed;html=1;points=[];align=center;fontSize=12;image=img/lib/azure2/compute/Azure_Spring_Cloud.svg;movable=1;resizable=1;rotatable=1;deletable=1;editable=1;locked=0;connectable=1;" vertex="1" parent="1">
          <mxGeometry x="849.5" y="331" width="80" height="80" as="geometry" />
        </mxCell>
        <mxCell id="jNxTYTGKxMf_xdA4_NXx-52" value="" style="outlineConnect=0;dashed=0;verticalLabelPosition=bottom;verticalAlign=top;align=center;html=1;shape=mxgraph.aws3.postgre_sql_instance;fillColor=#2E73B8;gradientColor=none;rounded=0;strokeColor=default;fontFamily=Helvetica;fontSize=12;fontColor=default;movable=1;resizable=1;rotatable=1;deletable=1;editable=1;locked=0;connectable=1;" vertex="1" parent="1">
          <mxGeometry x="959.5" y="338.5" width="60" height="63" as="geometry" />
        </mxCell>
        <UserObject label="fc-backoffice-service" placeholders="1" name="Variable" id="jNxTYTGKxMf_xdA4_NXx-54">
          <mxCell style="text;html=1;strokeColor=none;fillColor=none;align=center;verticalAlign=middle;whiteSpace=wrap;overflow=hidden;fontSize=15;fontFamily=Helvetica;fontColor=default;fontStyle=1;movable=1;resizable=1;rotatable=1;deletable=1;editable=1;locked=0;connectable=1;" vertex="1" parent="1">
            <mxGeometry x="625" y="431" width="157.25" height="20" as="geometry" />
          </mxCell>
        </UserObject>
        <UserObject label="fc-chart-service" placeholders="1" name="Variable" id="jNxTYTGKxMf_xdA4_NXx-55">
          <mxCell style="text;html=1;strokeColor=none;fillColor=none;align=center;verticalAlign=middle;whiteSpace=wrap;overflow=hidden;fontSize=15;fontFamily=Helvetica;fontColor=default;fontStyle=1;movable=1;resizable=1;rotatable=1;deletable=1;editable=1;locked=0;connectable=1;" vertex="1" parent="1">
            <mxGeometry x="859.75" y="434" width="149.5" height="20" as="geometry" />
          </mxCell>
        </UserObject>
        <UserObject label="fc-patient-service" placeholders="1" name="Variable" id="jNxTYTGKxMf_xdA4_NXx-56">
          <mxCell style="text;html=1;strokeColor=none;fillColor=none;align=center;verticalAlign=middle;whiteSpace=wrap;overflow=hidden;fontSize=15;fontFamily=Helvetica;fontColor=default;fontStyle=1;movable=1;resizable=1;rotatable=1;deletable=1;editable=1;locked=0;connectable=1;" vertex="1" parent="1">
            <mxGeometry x="1102.5" y="433" width="149.5" height="20" as="geometry" />
          </mxCell>
        </UserObject>
        <mxCell id="jNxTYTGKxMf_xdA4_NXx-59" value="" style="image;aspect=fixed;html=1;points=[];align=center;fontSize=12;image=img/lib/azure2/compute/Azure_Spring_Cloud.svg;movable=1;resizable=1;rotatable=1;deletable=1;editable=1;locked=0;connectable=1;" vertex="1" parent="1">
          <mxGeometry x="653.38" y="120" width="80" height="80" as="geometry" />
        </mxCell>
        <UserObject label="fc-api-gateway" placeholders="1" name="Variable" id="jNxTYTGKxMf_xdA4_NXx-61">
          <mxCell style="text;html=1;strokeColor=none;fillColor=none;align=center;verticalAlign=middle;whiteSpace=wrap;overflow=hidden;fontSize=15;fontFamily=Helvetica;fontColor=default;fontStyle=1;movable=1;resizable=1;rotatable=1;deletable=1;editable=1;locked=0;connectable=1;" vertex="1" parent="1">
            <mxGeometry x="614.75" y="180" width="157.25" height="20" as="geometry" />
          </mxCell>
        </UserObject>
        <mxCell id="jNxTYTGKxMf_xdA4_NXx-62" value="" style="rounded=1;whiteSpace=wrap;html=1;" vertex="1" parent="1">
          <mxGeometry x="89.75" y="-20" width="1220" height="100" as="geometry" />
        </mxCell>
        <mxCell id="jNxTYTGKxMf_xdA4_NXx-63" value="Eureka Layer" style="text;strokeColor=none;fillColor=none;html=1;fontSize=24;fontStyle=1;verticalAlign=middle;align=center;" vertex="1" parent="1">
          <mxGeometry x="104.75" y="-20" width="220" height="40" as="geometry" />
        </mxCell>
        <mxCell id="jNxTYTGKxMf_xdA4_NXx-64" value="" style="image;aspect=fixed;html=1;points=[];align=center;fontSize=12;image=img/lib/azure2/compute/Azure_Spring_Cloud.svg;movable=1;resizable=1;rotatable=1;deletable=1;editable=1;locked=0;connectable=1;" vertex="1" parent="1">
          <mxGeometry x="649.75" y="-10" width="80" height="80" as="geometry" />
        </mxCell>
        <UserObject label="fc-eureka-server" placeholders="1" name="Variable" id="jNxTYTGKxMf_xdA4_NXx-66">
          <mxCell style="text;html=1;strokeColor=none;fillColor=none;align=center;verticalAlign=middle;whiteSpace=wrap;overflow=hidden;fontSize=15;fontFamily=Helvetica;fontColor=default;fontStyle=1;movable=1;resizable=1;rotatable=1;deletable=1;editable=1;locked=0;connectable=1;" vertex="1" parent="1">
            <mxGeometry x="612.25" y="50" width="157.25" height="20" as="geometry" />
          </mxCell>
        </UserObject>
        <mxCell id="jNxTYTGKxMf_xdA4_NXx-68" value="" style="rounded=1;whiteSpace=wrap;html=1;strokeColor=default;fontFamily=Helvetica;fontSize=12;fontColor=default;fillColor=default;arcSize=6;movable=1;resizable=1;rotatable=1;deletable=1;editable=1;locked=0;connectable=1;" vertex="1" parent="1">
          <mxGeometry x="199" y="490" width="215" height="160" as="geometry" />
        </mxCell>
        <mxCell id="jNxTYTGKxMf_xdA4_NXx-69" value="" style="rounded=1;whiteSpace=wrap;html=1;strokeColor=default;fontFamily=Helvetica;fontSize=12;fontColor=default;fillColor=default;arcSize=10;movable=1;resizable=1;rotatable=1;deletable=1;editable=1;locked=0;connectable=1;" vertex="1" parent="1">
          <mxGeometry x="206.5" y="503" width="200" height="110" as="geometry" />
        </mxCell>
        <mxCell id="jNxTYTGKxMf_xdA4_NXx-70" value="" style="image;aspect=fixed;html=1;points=[];align=center;fontSize=12;image=img/lib/azure2/compute/Azure_Spring_Cloud.svg;movable=1;resizable=1;rotatable=1;deletable=1;editable=1;locked=0;connectable=1;" vertex="1" parent="1">
          <mxGeometry x="221.5" y="518" width="80" height="80" as="geometry" />
        </mxCell>
        <mxCell id="jNxTYTGKxMf_xdA4_NXx-71" value="" style="outlineConnect=0;dashed=0;verticalLabelPosition=bottom;verticalAlign=top;align=center;html=1;shape=mxgraph.aws3.postgre_sql_instance;fillColor=#2E73B8;gradientColor=none;rounded=0;strokeColor=default;fontFamily=Helvetica;fontSize=12;fontColor=default;movable=1;resizable=1;rotatable=1;deletable=1;editable=1;locked=0;connectable=1;" vertex="1" parent="1">
          <mxGeometry x="331.5" y="525.5" width="60" height="63" as="geometry" />
        </mxCell>
        <UserObject label="fc-payment-service" placeholders="1" name="Variable" id="jNxTYTGKxMf_xdA4_NXx-72">
          <mxCell style="text;html=1;strokeColor=none;fillColor=none;align=center;verticalAlign=middle;whiteSpace=wrap;overflow=hidden;fontSize=15;fontFamily=Helvetica;fontColor=default;fontStyle=1;movable=1;resizable=1;rotatable=1;deletable=1;editable=1;locked=0;connectable=1;" vertex="1" parent="1">
            <mxGeometry x="234.5" y="621" width="149.5" height="20" as="geometry" />
          </mxCell>
        </UserObject>
        <mxCell id="jNxTYTGKxMf_xdA4_NXx-73" value="" style="rounded=1;whiteSpace=wrap;html=1;strokeColor=default;fontFamily=Helvetica;fontSize=12;fontColor=default;fillColor=default;arcSize=6;movable=1;resizable=1;rotatable=1;deletable=1;editable=1;locked=0;connectable=1;" vertex="1" parent="1">
          <mxGeometry x="479.75" y="490" width="215" height="160" as="geometry" />
        </mxCell>
        <mxCell id="jNxTYTGKxMf_xdA4_NXx-74" value="" style="rounded=1;whiteSpace=wrap;html=1;strokeColor=default;fontFamily=Helvetica;fontSize=12;fontColor=default;fillColor=default;arcSize=10;movable=1;resizable=1;rotatable=1;deletable=1;editable=1;locked=0;connectable=1;" vertex="1" parent="1">
          <mxGeometry x="487.25" y="503" width="200" height="110" as="geometry" />
        </mxCell>
        <mxCell id="jNxTYTGKxMf_xdA4_NXx-75" value="" style="image;aspect=fixed;html=1;points=[];align=center;fontSize=12;image=img/lib/azure2/compute/Azure_Spring_Cloud.svg;movable=1;resizable=1;rotatable=1;deletable=1;editable=1;locked=0;connectable=1;" vertex="1" parent="1">
          <mxGeometry x="502.25" y="518" width="80" height="80" as="geometry" />
        </mxCell>
        <mxCell id="jNxTYTGKxMf_xdA4_NXx-76" value="" style="outlineConnect=0;dashed=0;verticalLabelPosition=bottom;verticalAlign=top;align=center;html=1;shape=mxgraph.aws3.postgre_sql_instance;fillColor=#2E73B8;gradientColor=none;rounded=0;strokeColor=default;fontFamily=Helvetica;fontSize=12;fontColor=default;movable=1;resizable=1;rotatable=1;deletable=1;editable=1;locked=0;connectable=1;" vertex="1" parent="1">
          <mxGeometry x="612.25" y="525.5" width="60" height="63" as="geometry" />
        </mxCell>
        <UserObject label="fc-notification-service" placeholders="1" name="Variable" id="jNxTYTGKxMf_xdA4_NXx-77">
          <mxCell style="text;html=1;strokeColor=none;fillColor=none;align=center;verticalAlign=middle;whiteSpace=wrap;overflow=hidden;fontSize=15;fontFamily=Helvetica;fontColor=default;fontStyle=1;movable=1;resizable=1;rotatable=1;deletable=1;editable=1;locked=0;connectable=1;" vertex="1" parent="1">
            <mxGeometry x="510.25" y="621" width="164.75" height="20" as="geometry" />
          </mxCell>
        </UserObject>
        <mxCell id="jNxTYTGKxMf_xdA4_NXx-78" value="" style="rounded=1;whiteSpace=wrap;html=1;strokeColor=default;fontFamily=Helvetica;fontSize=12;fontColor=default;fillColor=default;arcSize=6;movable=1;resizable=1;rotatable=1;deletable=1;editable=1;locked=0;connectable=1;" vertex="1" parent="1">
          <mxGeometry x="750" y="490" width="215" height="160" as="geometry" />
        </mxCell>
        <mxCell id="jNxTYTGKxMf_xdA4_NXx-79" value="" style="rounded=1;whiteSpace=wrap;html=1;strokeColor=default;fontFamily=Helvetica;fontSize=12;fontColor=default;fillColor=default;arcSize=10;movable=1;resizable=1;rotatable=1;deletable=1;editable=1;locked=0;connectable=1;" vertex="1" parent="1">
          <mxGeometry x="757.5" y="503" width="200" height="110" as="geometry" />
        </mxCell>
        <mxCell id="jNxTYTGKxMf_xdA4_NXx-80" value="" style="image;aspect=fixed;html=1;points=[];align=center;fontSize=12;image=img/lib/azure2/compute/Azure_Spring_Cloud.svg;movable=1;resizable=1;rotatable=1;deletable=1;editable=1;locked=0;connectable=1;" vertex="1" parent="1">
          <mxGeometry x="772.5" y="518" width="80" height="80" as="geometry" />
        </mxCell>
        <mxCell id="jNxTYTGKxMf_xdA4_NXx-81" value="" style="outlineConnect=0;dashed=0;verticalLabelPosition=bottom;verticalAlign=top;align=center;html=1;shape=mxgraph.aws3.postgre_sql_instance;fillColor=#2E73B8;gradientColor=none;rounded=0;strokeColor=default;fontFamily=Helvetica;fontSize=12;fontColor=default;movable=1;resizable=1;rotatable=1;deletable=1;editable=1;locked=0;connectable=1;" vertex="1" parent="1">
          <mxGeometry x="882.5" y="525.5" width="60" height="63" as="geometry" />
        </mxCell>
        <UserObject label="fc-fhir-server" placeholders="1" name="Variable" id="jNxTYTGKxMf_xdA4_NXx-82">
          <mxCell style="text;html=1;strokeColor=none;fillColor=none;align=center;verticalAlign=middle;whiteSpace=wrap;overflow=hidden;fontSize=15;fontFamily=Helvetica;fontColor=default;fontStyle=1;movable=1;resizable=1;rotatable=1;deletable=1;editable=1;locked=0;connectable=1;" vertex="1" parent="1">
            <mxGeometry x="785.5" y="621" width="149.5" height="20" as="geometry" />
          </mxCell>
        </UserObject>
        <mxCell id="jNxTYTGKxMf_xdA4_NXx-83" value="" style="rounded=1;whiteSpace=wrap;html=1;strokeColor=default;fontFamily=Helvetica;fontSize=12;fontColor=default;fillColor=default;arcSize=6;movable=1;resizable=1;rotatable=1;deletable=1;editable=1;locked=0;connectable=1;" vertex="1" parent="1">
          <mxGeometry x="1019.5" y="490" width="215" height="160" as="geometry" />
        </mxCell>
        <mxCell id="jNxTYTGKxMf_xdA4_NXx-84" value="" style="rounded=1;whiteSpace=wrap;html=1;strokeColor=default;fontFamily=Helvetica;fontSize=12;fontColor=default;fillColor=default;arcSize=10;movable=1;resizable=1;rotatable=1;deletable=1;editable=1;locked=0;connectable=1;" vertex="1" parent="1">
          <mxGeometry x="1027" y="503" width="200" height="110" as="geometry" />
        </mxCell>
        <mxCell id="jNxTYTGKxMf_xdA4_NXx-85" value="" style="image;aspect=fixed;html=1;points=[];align=center;fontSize=12;image=img/lib/azure2/compute/Azure_Spring_Cloud.svg;movable=1;resizable=1;rotatable=1;deletable=1;editable=1;locked=0;connectable=1;" vertex="1" parent="1">
          <mxGeometry x="1042" y="518" width="80" height="80" as="geometry" />
        </mxCell>
        <mxCell id="jNxTYTGKxMf_xdA4_NXx-86" value="" style="outlineConnect=0;dashed=0;verticalLabelPosition=bottom;verticalAlign=top;align=center;html=1;shape=mxgraph.aws3.postgre_sql_instance;fillColor=#2E73B8;gradientColor=none;rounded=0;strokeColor=default;fontFamily=Helvetica;fontSize=12;fontColor=default;movable=1;resizable=1;rotatable=1;deletable=1;editable=1;locked=0;connectable=1;" vertex="1" parent="1">
          <mxGeometry x="1152" y="525.5" width="60" height="63" as="geometry" />
        </mxCell>
        <UserObject label="fc-terminology-server" placeholders="1" name="Variable" id="jNxTYTGKxMf_xdA4_NXx-87">
          <mxCell style="text;html=1;strokeColor=none;fillColor=none;align=center;verticalAlign=middle;whiteSpace=wrap;overflow=hidden;fontSize=15;fontFamily=Helvetica;fontColor=default;fontStyle=1;movable=1;resizable=1;rotatable=1;deletable=1;editable=1;locked=0;connectable=1;" vertex="1" parent="1">
            <mxGeometry x="1045" y="621" width="175" height="20" as="geometry" />
          </mxCell>
        </UserObject>
      </root>
    </mxGraphModel>
  </diagram>
</mxfile>
